<mxfile host="Electron" agent="Mozilla/5.0 (Windows NT 10.0; Win64; x64) AppleWebKit/537.36 (KHTML, like Gecko) draw.io/27.0.9 Chrome/134.0.6998.205 Electron/35.4.0 Safari/537.36" version="27.0.9">
  <diagram name="第 1 页" id="U111eR9I_U12QtQV-N-G">
    <mxGraphModel dx="1213" dy="828" grid="1" gridSize="10" guides="1" tooltips="1" connect="1" arrows="1" fold="1" page="1" pageScale="1" pageWidth="827" pageHeight="1169" background="#ffffff" math="0" shadow="0">
      <root>
        <mxCell id="0" />
        <mxCell id="1" parent="0" />
        <mxCell id="5j9oMr25MbH1Rsx7sU_R-1" value="游戏开始前&lt;div&gt;初始状态&lt;/div&gt;" style="ellipse;whiteSpace=wrap;html=1;aspect=fixed;" vertex="1" parent="1">
          <mxGeometry x="60" y="200" width="80" height="80" as="geometry" />
        </mxCell>
        <mxCell id="5j9oMr25MbH1Rsx7sU_R-2" value="" style="ellipse;whiteSpace=wrap;html=1;aspect=fixed;" vertex="1" parent="1">
          <mxGeometry x="420" y="80" width="320" height="320" as="geometry" />
        </mxCell>
        <mxCell id="5j9oMr25MbH1Rsx7sU_R-3" value="" style="endArrow=classic;html=1;rounded=0;exitX=1;exitY=0.5;exitDx=0;exitDy=0;entryX=0;entryY=0.5;entryDx=0;entryDy=0;curved=1;" edge="1" parent="1" source="5j9oMr25MbH1Rsx7sU_R-1" target="5j9oMr25MbH1Rsx7sU_R-2">
          <mxGeometry width="50" height="50" relative="1" as="geometry">
            <mxPoint x="250" y="280" as="sourcePoint" />
            <mxPoint x="430" y="220" as="targetPoint" />
            <Array as="points">
              <mxPoint x="280" y="200" />
            </Array>
          </mxGeometry>
        </mxCell>
        <mxCell id="5j9oMr25MbH1Rsx7sU_R-4" value="游戏进行" style="text;html=1;align=center;verticalAlign=middle;whiteSpace=wrap;rounded=0;" vertex="1" parent="1">
          <mxGeometry x="550" y="90" width="60" height="30" as="geometry" />
        </mxCell>
        <mxCell id="5j9oMr25MbH1Rsx7sU_R-5" value="游戏胜利" style="ellipse;whiteSpace=wrap;html=1;aspect=fixed;" vertex="1" parent="1">
          <mxGeometry x="490" y="530" width="80" height="80" as="geometry" />
        </mxCell>
        <mxCell id="5j9oMr25MbH1Rsx7sU_R-6" value="游戏失败" style="ellipse;whiteSpace=wrap;html=1;aspect=fixed;" vertex="1" parent="1">
          <mxGeometry x="100" y="540" width="80" height="80" as="geometry" />
        </mxCell>
        <mxCell id="5j9oMr25MbH1Rsx7sU_R-8" value="当前等级&amp;gt;9" style="endArrow=classic;html=1;rounded=0;exitX=0.5;exitY=1;exitDx=0;exitDy=0;entryX=0.5;entryY=0;entryDx=0;entryDy=0;curved=1;" edge="1" parent="1" source="5j9oMr25MbH1Rsx7sU_R-2" target="5j9oMr25MbH1Rsx7sU_R-5">
          <mxGeometry width="50" height="50" relative="1" as="geometry">
            <mxPoint x="290" y="270" as="sourcePoint" />
            <mxPoint x="544" y="260" as="targetPoint" />
            <Array as="points">
              <mxPoint x="600" y="470" />
            </Array>
          </mxGeometry>
        </mxCell>
        <mxCell id="5j9oMr25MbH1Rsx7sU_R-9" value="生命值=0" style="endArrow=classic;html=1;rounded=0;exitX=0;exitY=1;exitDx=0;exitDy=0;entryX=1;entryY=0.5;entryDx=0;entryDy=0;curved=1;" edge="1" parent="1" source="5j9oMr25MbH1Rsx7sU_R-2" target="5j9oMr25MbH1Rsx7sU_R-6">
          <mxGeometry width="50" height="50" relative="1" as="geometry">
            <mxPoint x="468" y="330" as="sourcePoint" />
            <mxPoint x="468" y="470" as="targetPoint" />
            <Array as="points">
              <mxPoint x="360" y="520" />
            </Array>
          </mxGeometry>
        </mxCell>
        <mxCell id="5j9oMr25MbH1Rsx7sU_R-11" value="单击鼠标右键" style="endArrow=classic;html=1;rounded=0;exitX=0;exitY=0.5;exitDx=0;exitDy=0;entryX=1;entryY=1;entryDx=0;entryDy=0;curved=1;" edge="1" parent="1" source="5j9oMr25MbH1Rsx7sU_R-5" target="5j9oMr25MbH1Rsx7sU_R-1">
          <mxGeometry width="50" height="50" relative="1" as="geometry">
            <mxPoint x="430" y="480" as="sourcePoint" />
            <mxPoint x="430" y="620" as="targetPoint" />
            <Array as="points">
              <mxPoint x="350" y="380" />
            </Array>
          </mxGeometry>
        </mxCell>
        <mxCell id="5j9oMr25MbH1Rsx7sU_R-12" value="单击鼠标右键" style="endArrow=classic;html=1;rounded=0;exitX=0.5;exitY=0;exitDx=0;exitDy=0;entryX=0.5;entryY=1;entryDx=0;entryDy=0;curved=1;" edge="1" parent="1" source="5j9oMr25MbH1Rsx7sU_R-6" target="5j9oMr25MbH1Rsx7sU_R-1">
          <mxGeometry width="50" height="50" relative="1" as="geometry">
            <mxPoint x="496" y="602" as="sourcePoint" />
            <mxPoint x="110" y="300" as="targetPoint" />
            <Array as="points">
              <mxPoint x="50" y="390" />
            </Array>
          </mxGeometry>
        </mxCell>
        <mxCell id="5j9oMr25MbH1Rsx7sU_R-14" value="游戏暂停" style="ellipse;whiteSpace=wrap;html=1;aspect=fixed;" vertex="1" parent="1">
          <mxGeometry x="180" y="40" width="80" height="80" as="geometry" />
        </mxCell>
        <mxCell id="5j9oMr25MbH1Rsx7sU_R-15" value="关闭暂停开关" style="endArrow=classic;html=1;rounded=0;exitX=1;exitY=0.5;exitDx=0;exitDy=0;curved=1;" edge="1" parent="1" source="5j9oMr25MbH1Rsx7sU_R-14" target="5j9oMr25MbH1Rsx7sU_R-2">
          <mxGeometry width="50" height="50" relative="1" as="geometry">
            <mxPoint x="310" y="140" as="sourcePoint" />
            <mxPoint x="590" y="140" as="targetPoint" />
            <Array as="points">
              <mxPoint x="410" y="60" />
            </Array>
          </mxGeometry>
        </mxCell>
        <mxCell id="5j9oMr25MbH1Rsx7sU_R-16" value="打开暂停开关" style="endArrow=classic;html=1;rounded=0;entryX=1;entryY=1;entryDx=0;entryDy=0;curved=1;exitX=0.076;exitY=0.221;exitDx=0;exitDy=0;exitPerimeter=0;" edge="1" parent="1" source="5j9oMr25MbH1Rsx7sU_R-2" target="5j9oMr25MbH1Rsx7sU_R-14">
          <mxGeometry width="50" height="50" relative="1" as="geometry">
            <mxPoint x="320" y="150" as="sourcePoint" />
            <mxPoint x="600" y="150" as="targetPoint" />
            <Array as="points">
              <mxPoint x="330" y="160" />
            </Array>
          </mxGeometry>
        </mxCell>
        <mxCell id="5j9oMr25MbH1Rsx7sU_R-19" value="存在地鼠&lt;div&gt;（带计时器）&lt;/div&gt;" style="ellipse;whiteSpace=wrap;html=1;aspect=fixed;" vertex="1" parent="1">
          <mxGeometry x="450" y="200" width="80" height="80" as="geometry" />
        </mxCell>
        <mxCell id="5j9oMr25MbH1Rsx7sU_R-20" value="不存在地鼠&lt;div&gt;（带计时器）&lt;/div&gt;" style="ellipse;whiteSpace=wrap;html=1;aspect=fixed;" vertex="1" parent="1">
          <mxGeometry x="630" y="200" width="80" height="80" as="geometry" />
        </mxCell>
        <mxCell id="5j9oMr25MbH1Rsx7sU_R-21" value="击中地鼠或计时器归零（分数+）" style="endArrow=classic;html=1;rounded=0;exitX=1;exitY=0;exitDx=0;exitDy=0;entryX=0;entryY=0;entryDx=0;entryDy=0;curved=1;" edge="1" parent="1">
          <mxGeometry width="50" height="50" relative="1" as="geometry">
            <mxPoint x="519.2842712474621" y="211.71572875253787" as="sourcePoint" />
            <mxPoint x="642.7157287525379" y="211.71572875253787" as="targetPoint" />
            <Array as="points">
              <mxPoint x="581" y="180" />
            </Array>
          </mxGeometry>
        </mxCell>
        <mxCell id="5j9oMr25MbH1Rsx7sU_R-22" value="计时器归零（生命值--）" style="endArrow=classic;html=1;rounded=0;entryX=1;entryY=1;entryDx=0;entryDy=0;curved=1;exitX=0;exitY=1;exitDx=0;exitDy=0;" edge="1" parent="1" source="5j9oMr25MbH1Rsx7sU_R-20" target="5j9oMr25MbH1Rsx7sU_R-19">
          <mxGeometry width="50" height="50" relative="1" as="geometry">
            <mxPoint x="676" y="323" as="sourcePoint" />
            <mxPoint x="480" y="260" as="targetPoint" />
            <Array as="points">
              <mxPoint x="590" y="310" />
            </Array>
          </mxGeometry>
        </mxCell>
      </root>
    </mxGraphModel>
  </diagram>
</mxfile>
